<svg xmlns="http://www.w3.org/2000/svg" width="693" height="715" viewBox="0 0 693 715" fill="none"><g filter="url(#filter0_f_1304_243)"><path d="M323.119 459.47C306.325 462.417 289.094 461.735 272.585 457.471C256.075 453.207 240.67 445.459 227.403 434.749C214.136 424.038 203.314 410.612 195.666 395.372C188.017 380.133 183.719 363.433 183.058 346.395C182.398 329.357 185.392 312.374 191.838 296.589C198.285 280.803 208.035 266.58 220.433 254.875C232.832 243.17 247.592 234.253 263.722 228.724C279.852 223.196 296.978 221.183 313.95 222.821L302.469 341.768L323.119 459.47Z" fill="#FBFDDA"></path></g><g filter="url(#filter1_f_1304_243)"><path d="M242.066 374.177C251.646 360.071 264.133 348.179 278.689 339.299C293.246 330.419 309.534 324.757 326.46 322.693C343.385 320.629 360.557 322.212 376.82 327.334C393.084 332.456 408.063 340.999 420.751 352.389C433.44 363.779 443.544 377.753 450.385 393.372C457.225 408.991 460.644 425.892 460.412 442.942C460.18 459.991 456.302 476.794 449.038 492.22C441.775 507.647 431.294 521.34 418.3 532.381L340.923 441.314L242.066 374.177Z" fill="#FFF2DE"></path></g><g filter="url(#filter2_f_1304_243)"><path d="M292.261 234.654C301.841 220.548 314.328 208.656 328.885 199.776C343.441 190.896 359.729 185.234 376.655 183.17C393.581 181.106 410.752 182.689 427.015 187.811C443.279 192.933 458.258 201.476 470.947 212.866C483.635 224.256 493.739 238.23 500.58 253.849C507.421 269.468 510.84 286.369 510.608 303.419C510.375 320.468 506.497 337.271 499.234 352.697C491.97 368.124 481.489 381.817 468.495 392.858L391.119 301.792L292.261 234.654Z" fill="#FFF2ED"></path></g><g filter="url(#filter3_f_1304_243)"><path d="M323.119 459.47C306.325 462.417 289.094 461.735 272.585 457.471C256.075 453.207 240.67 445.459 227.403 434.749C214.136 424.038 203.314 410.612 195.666 395.372C188.017 380.133 183.719 363.433 183.058 346.395C182.398 329.357 185.392 312.374 191.838 296.589C198.285 280.803 208.035 266.58 220.433 254.875C232.832 243.17 247.592 234.253 263.722 228.724C279.852 223.196 296.978 221.183 313.95 222.821L302.469 341.768L323.119 459.47Z" fill="#FBFDDA"></path></g><g filter="url(#filter4_f_1304_243)"><path d="M242.066 374.177C251.646 360.071 264.133 348.179 278.689 339.299C293.246 330.419 309.534 324.757 326.46 322.693C343.385 320.629 360.557 322.212 376.82 327.334C393.084 332.456 408.063 340.999 420.751 352.389C433.44 363.779 443.544 377.753 450.385 393.372C457.225 408.991 460.644 425.892 460.412 442.942C460.18 459.991 456.302 476.794 449.038 492.22C441.775 507.647 431.294 521.34 418.3 532.381L340.923 441.314L242.066 374.177Z" fill="#FFF2DE"></path></g><g filter="url(#filter5_f_1304_243)"><path d="M292.261 234.654C301.841 220.548 314.328 208.656 328.885 199.776C343.441 190.896 359.729 185.234 376.655 183.17C393.581 181.106 410.752 182.689 427.015 187.811C443.279 192.933 458.258 201.476 470.947 212.866C483.635 224.256 493.739 238.23 500.58 253.849C507.421 269.468 510.84 286.369 510.608 303.419C510.375 320.468 506.497 337.271 499.234 352.697C491.97 368.124 481.489 381.817 468.495 392.858L391.119 301.792L292.261 234.654Z" fill="#FFF2ED"></path></g><defs><filter id="filter0_f_1304_243" x="0.96875" y="40.2682" width="504.152" height="603" filterUnits="userSpaceOnUse" color-interpolation-filters="sRGB"><feGaussianBlur stdDeviation="91"></feGaussianBlur></filter><filter id="filter1_f_1304_243" x="60.0664" y="139.814" width="582.355" height="574.566" filterUnits="userSpaceOnUse" color-interpolation-filters="sRGB"><feGaussianBlur stdDeviation="91"></feGaussianBlur></filter><filter id="filter2_f_1304_243" x="110.262" y="0.291542" width="582.355" height="574.566" filterUnits="userSpaceOnUse" color-interpolation-filters="sRGB"><feGaussianBlur stdDeviation="91"></feGaussianBlur></filter><filter id="filter3_f_1304_243" x="0.96875" y="40.2682" width="504.152" height="603" filterUnits="userSpaceOnUse" color-interpolation-filters="sRGB"><feGaussianBlur stdDeviation="91"></feGaussianBlur></filter><filter id="filter4_f_1304_243" x="60.0664" y="139.814" width="582.355" height="574.566" filterUnits="userSpaceOnUse" color-interpolation-filters="sRGB"><feGaussianBlur stdDeviation="91"></feGaussianBlur></filter><filter id="filter5_f_1304_243" x="110.262" y="0.291542" width="582.355" height="574.566" filterUnits="userSpaceOnUse" color-interpolation-filters="sRGB"><feGaussianBlur stdDeviation="91"></feGaussianBlur></filter></defs></svg>