<svg xmlns="http://www.w3.org/2000/svg" xmlns:xlink="http://www.w3.org/1999/xlink" fill="none" height="715" viewBox="0 0 560 715" width="560"><filter id="a" color-interpolation-filters="sRGB" filterUnits="userSpaceOnUse" height="603" width="504.152" x=".96875" y="40.2682"><feGaussianBlur stdDeviation="91"></feGaussianBlur></filter><filter id="b" color-interpolation-filters="sRGB" filterUnits="userSpaceOnUse" height="574.566" width="582.355" x="60.0664" y="139.814"><feGaussianBlur stdDeviation="91"></feGaussianBlur></filter><filter id="c" color-interpolation-filters="sRGB" filterUnits="userSpaceOnUse" height="574.567" width="582.355" x="110.262" y=".291504"><feGaussianBlur stdDeviation="91"></feGaussianBlur></filter><filter id="d" color-interpolation-filters="sRGB" filterUnits="userSpaceOnUse" height="603" width="504.152" x=".96875" y="40.2682"><feGaussianBlur stdDeviation="91"></feGaussianBlur></filter><filter id="e" color-interpolation-filters="sRGB" filterUnits="userSpaceOnUse" height="574.566" width="582.355" x="60.0664" y="139.814"><feGaussianBlur stdDeviation="91"></feGaussianBlur></filter><filter id="f" color-interpolation-filters="sRGB" filterUnits="userSpaceOnUse" height="574.567" width="582.355" x="110.262" y=".291504"><feGaussianBlur stdDeviation="91"></feGaussianBlur></filter><g filter="url(#a)"><path d="m323.119 459.47c-16.794 2.947-34.025 2.265-50.534-1.999-16.51-4.264-31.915-12.012-45.182-22.722-13.267-10.711-24.089-24.137-31.737-39.377-7.649-15.239-11.947-31.939-12.608-48.977-.66-17.038 2.334-34.021 8.78-49.806 6.447-15.786 16.197-30.009 28.595-41.714 12.399-11.705 27.159-20.622 43.289-26.151 16.13-5.528 33.256-7.541 50.228-5.903l-11.481 118.947z" fill="#fbfdda"></path></g><g filter="url(#b)"><path d="m242.066 374.177c9.58-14.106 22.067-25.998 36.623-34.878 14.557-8.88 30.845-14.542 47.771-16.606 16.925-2.064 34.097-.482 50.36 4.64 16.264 5.122 31.243 13.666 43.931 25.056 12.689 11.39 22.793 25.364 29.634 40.983 6.84 15.619 10.259 32.52 10.027 49.57-.232 17.049-4.11 33.852-11.374 49.278-7.263 15.427-17.744 29.12-30.738 40.161l-77.377-91.067z" fill="#fff2de"></path></g><g filter="url(#c)"><path d="m292.261 234.654c9.58-14.106 22.067-25.998 36.624-34.878 14.556-8.88 30.844-14.542 47.77-16.606s34.097-.481 50.36 4.641c16.264 5.122 31.243 13.665 43.932 25.055 12.688 11.39 22.792 25.364 29.633 40.983s10.26 32.52 10.028 49.57c-.233 17.049-4.111 33.852-11.374 49.278-7.264 15.427-17.745 29.12-30.739 40.161l-77.376-91.066z" fill="#fff2ed"></path></g><g filter="url(#d)"><path d="m323.119 459.47c-16.794 2.947-34.025 2.265-50.534-1.999-16.51-4.264-31.915-12.012-45.182-22.722-13.267-10.711-24.089-24.137-31.737-39.377-7.649-15.239-11.947-31.939-12.608-48.977-.66-17.038 2.334-34.021 8.78-49.806 6.447-15.786 16.197-30.009 28.595-41.714 12.399-11.705 27.159-20.622 43.289-26.151 16.13-5.528 33.256-7.541 50.228-5.903l-11.481 118.947z" fill="#fbfdda"></path></g><g filter="url(#e)"><path d="m242.066 374.177c9.58-14.106 22.067-25.998 36.623-34.878 14.557-8.88 30.845-14.542 47.771-16.606 16.925-2.064 34.097-.482 50.36 4.64 16.264 5.122 31.243 13.666 43.931 25.056 12.689 11.39 22.793 25.364 29.634 40.983 6.84 15.619 10.259 32.52 10.027 49.57-.232 17.049-4.11 33.852-11.374 49.278-7.263 15.427-17.744 29.12-30.738 40.161l-77.377-91.067z" fill="#fff2de"></path></g><g filter="url(#f)"><path d="m292.261 234.654c9.58-14.106 22.067-25.998 36.624-34.878 14.556-8.88 30.844-14.542 47.77-16.606s34.097-.481 50.36 4.641c16.264 5.122 31.243 13.665 43.932 25.055 12.688 11.39 22.792 25.364 29.633 40.983s10.26 32.52 10.028 49.57c-.233 17.049-4.111 33.852-11.374 49.278-7.264 15.427-17.745 29.12-30.739 40.161l-77.376-91.066z" fill="#fff2ed"></path></g></svg>